{
	"nodes":[{
		"children":[1,
		2,
		3,
		4,
		5],
		"name":"Scene",
		"translation":[0.0,
		0.0,
		0.0],
		"rotation":[0.0,
		0.0,
		0.0,
		-1.0],
		"scale":[0.0010000000474974514,
		0.0010000000474974514,
		0.0010000000474974514]
	},
	{
		"name":"Frame",
		"translation":[0.0,
		43.15266418457031,
		27.270977020263673],
		"rotation":[-0.7071067690849304,
		0.0,
		0.0,
		-0.7071067690849304],
		"scale":[1.0,
		1.0,
		1.0],
		"mesh":0
	},
	{
		"name":"occlude_object",
		"translation":[0.0,
		0.0,
		12.827546119689942],
		"rotation":[0.0,
		0.0,
		0.0,
		-1.0],
		"scale":[1.0,
		1.0,
		1.0],
		"mesh":1
	},
	{
		"name":"Plane",
		"translation":[117.98409271240235,
		-281.89862060546877,
		-985.0455932617188],
		"rotation":[0.0,
		0.0,
		0.0,
		-1.0],
		"scale":[1.0,
		1.0,
		1.0],
		"mesh":2
	},
	{
		"name":"Extrude",
		"translation":[97.84759521484375,
		-160.02481079101563,
		-992.5009155273438],
		"rotation":[0.0,
		0.0,
		0.0,
		-1.0],
		"scale":[1.0,
		1.0,
		1.0],
		"mesh":3
	},
	{
		"name":"whale",
		"translation":[117.98409271240235,
		-180.9572296142578,
		-985.0455932617188],
		"rotation":[0.0,
		0.0,
		0.0,
		-1.0],
		"scale":[1.0,
		1.0,
		1.0],
		"mesh":4
	}],
	"asset":{
		"version":"2.0",
		"generator":"Created using the official Cinema 4D glTF Exporter 1.000x284978"
	},
	"materials":[{
		"pbrMetallicRoughness":{
			"baseColorFactor":[1.0,
			1.0,
			1.0,
			1.0],
			"metallicFactor":1.0,
			"roughnessFactor":1.0
		},
		"emissiveFactor":[1.0,
		1.0,
		1.0],
		"alphaMode":"OPAQUE",
		"doubleSided":false,
		"name":"Mat"
	},
	{
		"pbrMetallicRoughness":{
			"baseColorFactor":[0.8,
			0.8,
			0.8,
			1.0],
			"metallicFactor":0.0,
			"roughnessFactor":0.5
		},
		"emissiveFactor":[0.0,
		0.0,
		0.0],
		"alphaMode":"OPAQUE",
		"doubleSided":false,
		"name":"Mat"
	},
	{
		"pbrMetallicRoughness":{
			"baseColorFactor":[1.0,
			1.0,
			1.0,
			1.0],
			"metallicFactor":1.0,
			"roughnessFactor":1.0
		},
		"emissiveTexture":{
			"index":0
		},
		"emissiveFactor":[1.0,
		1.0,
		1.0],
		"alphaMode":"OPAQUE",
		"doubleSided":false,
		"name":"Vivre_le_St-Larent_V3 copy"
	},
	{
		"pbrMetallicRoughness":{
			"baseColorTexture":{
				"index":1
			},
			"baseColorFactor":[1.0,
			1.0,
			1.0,
			1.0],
			"metallicFactor":1.0,
			"roughnessFactor":1.0
		},
		"emissiveTexture":{
			"index":2
		},
		"emissiveFactor":[1.0,
		1.0,
		1.0],
		"alphaMode":"BLEND",
		"doubleSided":false,
		"name":"Vivre_le_St-Larent (1)"
	}],
	"scenes":[{
		"nodes":[0]
	}],
	"images":[{
		"uri":"data:image/jpeg;base64,"
	},
	{
		"uri":"data:image/png;base64,"
	},
	{
		"uri":"data:image/jpeg;base64,"
	}],
	"meshes":[{
		"name":"Frame",
		"primitives":[{
			"indices":0,
			"attributes":{
				"POSITION":1,
				"NORMAL":2,
				"TEXCOORD_0":3
			},
			"material":0
		}]
	},
	{
		"name":"occlude_object",
		"primitives":[{
			"indices":4,
			"attributes":{
				"POSITION":5,
				"NORMAL":6,
				"TEXCOORD_0":7
			},
			"material":1
		}]
	},
	{
		"name":"Plane",
		"primitives":[{
			"indices":8,
			"attributes":{
				"POSITION":9,
				"NORMAL":10,
				"TEXCOORD_0":11
			},
			"material":2
		}]
	},
	{
		"name":"Extrude",
		"primitives":[{
			"indices":12,
			"attributes":{
				"POSITION":13,
				"NORMAL":14,
				"TEXCOORD_0":15
			},
			"material":3
		}]
	},
	{
		"name":"whale",
		"primitives":[{
			"indices":16,
			"attributes":{
				"POSITION":17,
				"NORMAL":18,
				"TEXCOORD_0":19
			},
			"material":3
		}]
	}],
	"buffers":[{
		"uri":"data:application/octet-stream;base64,",
		"byteLength":304
	},
	{
		"uri":"data:application/octet-stream;base64,",
		"byteLength":304
	},
	{
		"uri":"data:application/octet-stream;base64,",
		"byteLength":2976
	},
	{
		"uri":"data:application/octet-stream;base64,",
		"byteLength":497296
	},
	{
		"uri":"data:application/octet-stream;base64,",
		"byteLength":449536
	}],
	"accessors":[{
		"bufferView":0,
		"type":"SCALAR",
		"componentType":5123,
		"count":24,
		"byteOffset":0,
		"min":[0],
		"max":[7]
	},
	{
		"bufferView":1,
		"type":"VEC3",
		"componentType":5126,
		"count":8,
		"byteOffset":0,
		"min":[-262.8077392578125,
		-20.149627685546876,
		-327.3437805175781],
		"max":[250.04771423339845,
		-20.149627685546876,
		319.3000183105469]
	},
	{
		"bufferView":1,
		"type":"VEC3",
		"componentType":5126,
		"count":8,
		"byteOffset":12,
		"min":[0.0,
		1.0,
		0.0],
		"max":[0.0,
		1.0,
		0.0]
	},
	{
		"bufferView":1,
		"type":"VEC2",
		"componentType":5126,
		"count":8,
		"byteOffset":24,
		"min":[0.0,
		0.0],
		"max":[1.0,
		1.0]
	},
	{
		"bufferView":2,
		"type":"SCALAR",
		"componentType":5123,
		"count":24,
		"byteOffset":0,
		"min":[0],
		"max":[7]
	},
	{
		"bufferView":3,
		"type":"VEC3",
		"componentType":5126,
		"count":8,
		"byteOffset":0,
		"min":[-2262.0498046875,
		-1295.5557861328126,
		-7.41502046585083],
		"max":[1979.1441650390626,
		1407.3837890625,
		-7.41502046585083]
	},
	{
		"bufferView":3,
		"type":"VEC3",
		"componentType":5126,
		"count":8,
		"byteOffset":12,
		"min":[0.0,
		0.0,
		1.0],
		"max":[0.0,
		0.0,
		1.0]
	},
	{
		"bufferView":3,
		"type":"VEC2",
		"componentType":5126,
		"count":8,
		"byteOffset":24,
		"min":[0.0,
		0.0],
		"max":[1.0,
		1.0]
	},
	{
		"bufferView":4,
		"type":"SCALAR",
		"componentType":5123,
		"count":336,
		"byteOffset":0,
		"min":[0],
		"max":[71]
	},
	{
		"bufferView":5,
		"type":"VEC3",
		"componentType":5126,
		"count":72,
		"byteOffset":0,
		"min":[-1615.1181640625,
		0.0,
		-2917.633056640625],
		"max":[1615.1181640625,
		0.0,
		973.6356811523438]
	},
	{
		"bufferView":5,
		"type":"VEC3",
		"componentType":5126,
		"count":72,
		"byteOffset":12,
		"min":[0.0,
		1.0,
		0.0],
		"max":[0.0,
		1.0,
		0.0]
	},
	{
		"bufferView":5,
		"type":"VEC2",
		"componentType":5126,
		"count":72,
		"byteOffset":24,
		"min":[-2.1710205078125,
		0.5454999804496765],
		"max":[3.18060302734375,
		1.0193113088607789]
	},
	{
		"bufferView":6,
		"type":"SCALAR",
		"componentType":5123,
		"count":45096,
		"byteOffset":0,
		"min":[0],
		"max":[12721]
	},
	{
		"bufferView":7,
		"type":"VEC3",
		"componentType":5126,
		"count":12722,
		"byteOffset":0,
		"min":[-650.4464111328125,
		-189.5414276123047,
		-412.745849609375],
		"max":[142.5883026123047,
		234.6852264404297,
		326.1786804199219]
	},
	{
		"bufferView":7,
		"type":"VEC3",
		"componentType":5126,
		"count":12722,
		"byteOffset":12,
		"min":[-0.9999983906745911,
		-0.9999573230743408,
		-1.0],
		"max":[1.0,
		0.9999998807907105,
		1.0]
	},
	{
		"bufferView":7,
		"type":"VEC2",
		"componentType":5126,
		"count":12722,
		"byteOffset":24,
		"min":[0.20117568969726563,
		0.36555296182632449],
		"max":[0.634063720703125,
		0.733481228351593]
	},
	{
		"bufferView":8,
		"type":"SCALAR",
		"componentType":5123,
		"count":40224,
		"byteOffset":0,
		"min":[0],
		"max":[11533]
	},
	{
		"bufferView":9,
		"type":"VEC3",
		"componentType":5126,
		"count":11534,
		"byteOffset":0,
		"min":[-670.5828857421875,
		-131.2273406982422,
		-420.201171875],
		"max":[-242.7725067138672,
		255.61764526367188,
		-353.8411865234375]
	},
	{
		"bufferView":9,
		"type":"VEC3",
		"componentType":5126,
		"count":11534,
		"byteOffset":12,
		"min":[-0.9999984502792358,
		-0.9999573230743408,
		-1.0],
		"max":[1.0,
		0.9999998211860657,
		1.0]
	},
	{
		"bufferView":9,
		"type":"VEC2",
		"componentType":5126,
		"count":11534,
		"byteOffset":24,
		"min":[0.20117568969726563,
		0.36555296182632449],
		"max":[0.4130859375,
		0.6522506475448608]
	}],
	"bufferViews":[{
		"buffer":0,
		"byteOffset":0,
		"byteLength":48,
		"target":34963
	},
	{
		"buffer":0,
		"byteOffset":48,
		"byteLength":256,
		"target":34962,
		"byteStride":32
	},
	{
		"buffer":1,
		"byteOffset":0,
		"byteLength":48,
		"target":34963
	},
	{
		"buffer":1,
		"byteOffset":48,
		"byteLength":256,
		"target":34962,
		"byteStride":32
	},
	{
		"buffer":2,
		"byteOffset":0,
		"byteLength":672,
		"target":34963
	},
	{
		"buffer":2,
		"byteOffset":672,
		"byteLength":2304,
		"target":34962,
		"byteStride":32
	},
	{
		"buffer":3,
		"byteOffset":0,
		"byteLength":90192,
		"target":34963
	},
	{
		"buffer":3,
		"byteOffset":90192,
		"byteLength":407104,
		"target":34962,
		"byteStride":32
	},
	{
		"buffer":4,
		"byteOffset":0,
		"byteLength":80448,
		"target":34963
	},
	{
		"buffer":4,
		"byteOffset":80448,
		"byteLength":369088,
		"target":34962,
		"byteStride":32
	}],
	"samplers":[{
		"magFilter":9729,
		"minFilter":9729,
		"wrapS":10497,
		"wrapT":10497
	},
	{
		"magFilter":9729,
		"minFilter":9729,
		"wrapS":10497,
		"wrapT":10497
	},
	{
		"magFilter":9729,
		"minFilter":9729,
		"wrapS":10497,
		"wrapT":10497
	}],
	"textures":[{
		"sampler":0,
		"source":0
	},
	{
		"sampler":1,
		"source":1
	},
	{
		"sampler":2,
		"source":2
	}]
}