{
	"asset":{
		"version":"2.0",
		"generator":"Created using the official Cinema 4D glTF Exporter 1.000x284978"
	},
	"materials":[{
		"pbrMetallicRoughness":{
			"baseColorFactor":[1.0,
			1.0,
			1.0,
			1.0],
			"baseColorTexture":{
				"index":0
			},
			"metallicFactor":1.0,
			"roughnessFactor":1.0
		},
		"emissiveTexture":{
			"index":1
		},
		"emissiveFactor":[1.0,
		1.0,
		1.0],
		"alphaMode":"BLEND",
		"doubleSided":false,
		"name":"whales_and_boat"
	},
	{
		"pbrMetallicRoughness":{
			"baseColorFactor":[1.0,
			1.0,
			1.0,
			0.4],
			"baseColorTexture":{
				"index":2
			},
			"metallicFactor":1.0,
			"roughnessFactor":1.0
		},
		"emissiveTexture":{
			"index":3
		},
		"emissiveFactor":[1.0,
		1.0,
		1.0],
		"alphaMode":"BLEND",
		"doubleSided":false,
		"name":"Mat.1"
	},
	{
		"pbrMetallicRoughness":{
			"baseColorFactor":[1.0,
			1.0,
			1.0,
			1.0],
			"metallicFactor":1.0,
			"roughnessFactor":1.0
		},
		"emissiveFactor":[1.0,
		1.0,
		1.0],
		"alphaMode":"OPAQUE",
		"doubleSided":false,
		"name":"Mat"
	},
	{
		"pbrMetallicRoughness":{
			"baseColorFactor":[0.8,
			0.8,
			0.8,
			1.0],
			"metallicFactor":0.0,
			"roughnessFactor":0.5
		},
		"emissiveFactor":[0.0,
		0.0,
		0.0],
		"alphaMode":"OPAQUE",
		"doubleSided":false,
		"name":"Mat"
	},
	{
		"pbrMetallicRoughness":{
			"baseColorFactor":[1.0,
			1.0,
			1.0,
			1.0],
			"metallicFactor":1.0,
			"roughnessFactor":1.0
		},
		"emissiveTexture":{
			"index":4
		},
		"emissiveFactor":[1.0,
		1.0,
		1.0],
		"alphaMode":"OPAQUE",
		"doubleSided":false,
		"name":"Vivre_le_St-Larent_V3 copy"
	}],
	"scenes":[{
		"nodes":[0]
	}],
	"nodes":[{
		"name":"Scene",
		"translation":[0.0,
		0.0,
		0.0],
		"rotation":[0.0,
		0.0,
		0.0,
		-1.0],
		"scale":[0.0010000000474974514,
		0.0010000000474974514,
		0.0010000000474974514],
		"children":[1,
		4,
		5,
		6,
		7]
	},
	{
		"name":"whaleGroup",
		"translation":[0.0,
		0.0,
		0.0],
		"rotation":[0.0,
		0.0,
		7.450580596923828e-9,
		-1.0],
		"scale":[1000.0,
		1000.0,
		1000.0],
		"children":[2,
		3]
	},
	{
		"name":"whale",
		"translation":[-0.15659938752651215,
		-0.1448938250541687,
		-1.3231412172317505],
		"rotation":[-0.06975647062063217,
		-5.197262065159691e-10,
		7.432431559095676e-9,
		-0.9975640773773193],
		"scale":[0.10000000149011612,
		0.10000000149011612,
		0.10000000149011612],
		"mesh":0
	},
	{
		"name":"splash",
		"translation":[0.15232135355472566,
		0.004060923587530851,
		-1.2676928043365479],
		"rotation":[-0.7071067690849304,
		0.0,
		0.0,
		-0.7071067690849304],
		"scale":[0.0010000000474974514,
		0.0010000000474974514,
		0.0010000000474974514],
		"mesh":1
	},
	{
		"name":"boat",
		"translation":[169.6283416748047,
		-42.34443283081055,
		-843.4443969726563],
		"rotation":[0.9430024027824402,
		0.0029944574926048519,
		-0.08091489970684052,
		0.3227851986885071],
		"scale":[100.0,
		100.0,
		100.0],
		"mesh":2
	},
	{
		"name":"Frame",
		"translation":[0.0,
		0.0,
		27.270977020263673],
		"rotation":[-0.7071067690849304,
		0.0,
		0.0,
		-0.7071067690849304],
		"scale":[1.0,
		1.0,
		1.0],
		"mesh":3
	},
	{
		"name":"occlude_object",
		"translation":[0.0,
		-44.29216003417969,
		12.827546119689942],
		"rotation":[0.0,
		0.0,
		0.0,
		-1.0],
		"scale":[1.0,
		1.0,
		1.0],
		"mesh":4
	},
	{
		"name":"Plane",
		"translation":[136.55548095703126,
		-187.22068786621095,
		-962.8914794921875],
		"rotation":[-0.06975647062063217,
		0.0,
		0.0,
		-0.9975640773773193],
		"scale":[1.0,
		1.0,
		1.0],
		"mesh":5
	}],
	"images":[{
		"uri":"data:image/png;base64,"
	},
	{
		"uri":"data:image/jpeg;base64,"
	},
	{
		"uri":"data:image/png;base64,"
	},
	{
		"uri":"data:image/jpeg;base64,"
	},
	{
		"uri":"data:image/jpeg;base64,"
	}],
	"meshes":[{
		"name":"whale",
		"primitives":[{
			"attributes":{
				"POSITION":1,
				"NORMAL":2,
				"TEXCOORD_0":3
			},
			"indices":0,
			"material":0
		}]
	},
	{
		"name":"splash",
		"primitives":[{
			"attributes":{
				"POSITION":5,
				"NORMAL":6,
				"TEXCOORD_0":7
			},
			"indices":4,
			"material":1
		}]
	},
	{
		"name":"boat",
		"primitives":[{
			"attributes":{
				"POSITION":9,
				"NORMAL":10,
				"TEXCOORD_0":11
			},
			"indices":8,
			"material":0
		}]
	},
	{
		"name":"Frame",
		"primitives":[{
			"attributes":{
				"POSITION":13,
				"NORMAL":14,
				"TEXCOORD_0":15
			},
			"indices":12,
			"material":2
		}]
	},
	{
		"name":"occlude_object",
		"primitives":[{
			"attributes":{
				"POSITION":17,
				"NORMAL":18,
				"TEXCOORD_0":19
			},
			"indices":16,
			"material":3
		}]
	},
	{
		"name":"Plane",
		"primitives":[{
			"attributes":{
				"POSITION":21,
				"NORMAL":22,
				"TEXCOORD_0":23
			},
			"indices":20,
			"material":4
		}]
	}],
	"buffers":[{
		"uri":"data:application/octet-stream;base64,",
		"byteLength":532260
	},
	{
		"uri":"data:application/octet-stream;base64,",
		"byteLength":5072
	},
	{
		"uri":"data:application/octet-stream;base64,",
		"byteLength":30424
	},
	{
		"uri":"data:application/octet-stream;base64,",
		"byteLength":304
	},
	{
		"uri":"data:application/octet-stream;base64,",
		"byteLength":304
	},
	{
		"uri":"data:application/octet-stream;base64,",
		"byteLength":41376
	}],
	"accessors":[{
		"bufferView":0,
		"min":[0],
		"type":"SCALAR",
		"componentType":5123,
		"count":53538,
		"byteOffset":0,
		"max":[13286]
	},
	{
		"bufferView":1,
		"min":[-2.530406951904297,
		-0.17296941578388215,
		-0.08939182758331299],
		"type":"VEC3",
		"componentType":5126,
		"count":13287,
		"byteOffset":0,
		"max":[1.2803807258605958,
		3.272914171218872,
		0.07931153476238251]
	},
	{
		"bufferView":1,
		"min":[-0.9999996423721314,
		-0.9999573230743408,
		-1.0],
		"type":"VEC3",
		"componentType":5126,
		"count":13287,
		"byteOffset":12,
		"max":[1.0,
		0.9999998211860657,
		1.0]
	},
	{
		"bufferView":1,
		"min":[0.125,
		0.28770431876182558],
		"type":"VEC2",
		"componentType":5126,
		"count":13287,
		"byteOffset":24,
		"max":[0.40026092529296877,
		0.6327884793281555]
	},
	{
		"bufferView":2,
		"min":[0],
		"type":"SCALAR",
		"componentType":5123,
		"count":600,
		"byteOffset":0,
		"max":[120]
	},
	{
		"bufferView":3,
		"min":[-946.3736572265625,
		0.0,
		-625.9867553710938],
		"type":"VEC3",
		"componentType":5126,
		"count":121,
		"byteOffset":0,
		"max":[946.3737182617188,
		0.0,
		625.9867553710938]
	},
	{
		"bufferView":3,
		"min":[0.0,
		1.0,
		0.0],
		"type":"VEC3",
		"componentType":5126,
		"count":121,
		"byteOffset":12,
		"max":[0.0,
		1.0,
		0.0]
	},
	{
		"bufferView":3,
		"min":[0.0,
		0.0],
		"type":"VEC2",
		"componentType":5126,
		"count":121,
		"byteOffset":24,
		"max":[1.0,
		1.0]
	},
	{
		"bufferView":4,
		"min":[0],
		"type":"SCALAR",
		"componentType":5123,
		"count":2556,
		"byteOffset":0,
		"max":[790]
	},
	{
		"bufferView":5,
		"min":[-1.5334149599075318,
		-1.3143585920333863,
		-1.9675867557525635],
		"type":"VEC3",
		"componentType":5126,
		"count":791,
		"byteOffset":0,
		"max":[1.1360892057418824,
		2.150186538696289,
		2.2403392791748049]
	},
	{
		"bufferView":5,
		"min":[-0.9987143278121948,
		-0.9933170676231384,
		-0.9836807250976563],
		"type":"VEC3",
		"componentType":5126,
		"count":791,
		"byteOffset":12,
		"max":[0.9987143278121948,
		0.9933170676231384,
		0.9836807250976563]
	},
	{
		"bufferView":5,
		"min":[0.4556427001953125,
		0.2974742650985718],
		"type":"VEC2",
		"componentType":5126,
		"count":791,
		"byteOffset":24,
		"max":[0.6331634521484375,
		0.7000897526741028]
	},
	{
		"bufferView":6,
		"min":[0],
		"type":"SCALAR",
		"componentType":5123,
		"count":24,
		"byteOffset":0,
		"max":[7]
	},
	{
		"bufferView":7,
		"min":[-262.8077392578125,
		-20.149627685546876,
		-327.3437805175781],
		"type":"VEC3",
		"componentType":5126,
		"count":8,
		"byteOffset":0,
		"max":[250.04771423339845,
		-20.149627685546876,
		319.3000183105469]
	},
	{
		"bufferView":7,
		"min":[0.0,
		1.0,
		0.0],
		"type":"VEC3",
		"componentType":5126,
		"count":8,
		"byteOffset":12,
		"max":[0.0,
		1.0,
		0.0]
	},
	{
		"bufferView":7,
		"min":[0.0,
		0.0],
		"type":"VEC2",
		"componentType":5126,
		"count":8,
		"byteOffset":24,
		"max":[1.0,
		1.0]
	},
	{
		"bufferView":8,
		"min":[0],
		"type":"SCALAR",
		"componentType":5123,
		"count":24,
		"byteOffset":0,
		"max":[7]
	},
	{
		"bufferView":9,
		"min":[-2262.0498046875,
		-1295.5557861328126,
		-7.41502046585083],
		"type":"VEC3",
		"componentType":5126,
		"count":8,
		"byteOffset":0,
		"max":[1979.1441650390626,
		1407.3837890625,
		-7.41502046585083]
	},
	{
		"bufferView":9,
		"min":[0.0,
		0.0,
		1.0],
		"type":"VEC3",
		"componentType":5126,
		"count":8,
		"byteOffset":12,
		"max":[0.0,
		0.0,
		1.0]
	},
	{
		"bufferView":9,
		"min":[0.0,
		0.0],
		"type":"VEC2",
		"componentType":5126,
		"count":8,
		"byteOffset":24,
		"max":[1.0,
		1.0]
	},
	{
		"bufferView":10,
		"min":[0],
		"type":"SCALAR",
		"componentType":5123,
		"count":5376,
		"byteOffset":0,
		"max":[956]
	},
	{
		"bufferView":11,
		"min":[-1615.1181640625,
		-2.982881519911218e-12,
		-2917.633056640625],
		"type":"VEC3",
		"componentType":5126,
		"count":957,
		"byteOffset":0,
		"max":[1615.1181640625,
		0.0,
		959.4491577148438]
	},
	{
		"bufferView":11,
		"min":[0.0,
		1.0,
		0.0],
		"type":"VEC3",
		"componentType":5126,
		"count":957,
		"byteOffset":12,
		"max":[0.0,
		1.0,
		7.93483354922294e-15]
	},
	{
		"bufferView":11,
		"min":[-2.1710205078125,
		0.5454999804496765],
		"type":"VEC2",
		"componentType":5126,
		"count":957,
		"byteOffset":24,
		"max":[3.18060302734375,
		1.0193113088607789]
	}],
	"bufferViews":[{
		"buffer":0,
		"byteOffset":0,
		"target":34963,
		"byteLength":107076
	},
	{
		"buffer":0,
		"byteOffset":107076,
		"target":34962,
		"byteLength":425184,
		"byteStride":32
	},
	{
		"buffer":1,
		"byteOffset":0,
		"target":34963,
		"byteLength":1200
	},
	{
		"buffer":1,
		"byteOffset":1200,
		"target":34962,
		"byteLength":3872,
		"byteStride":32
	},
	{
		"buffer":2,
		"byteOffset":0,
		"target":34963,
		"byteLength":5112
	},
	{
		"buffer":2,
		"byteOffset":5112,
		"target":34962,
		"byteLength":25312,
		"byteStride":32
	},
	{
		"buffer":3,
		"byteOffset":0,
		"target":34963,
		"byteLength":48
	},
	{
		"buffer":3,
		"byteOffset":48,
		"target":34962,
		"byteLength":256,
		"byteStride":32
	},
	{
		"buffer":4,
		"byteOffset":0,
		"target":34963,
		"byteLength":48
	},
	{
		"buffer":4,
		"byteOffset":48,
		"target":34962,
		"byteLength":256,
		"byteStride":32
	},
	{
		"buffer":5,
		"byteOffset":0,
		"target":34963,
		"byteLength":10752
	},
	{
		"buffer":5,
		"byteOffset":10752,
		"target":34962,
		"byteLength":30624,
		"byteStride":32
	}],
	"samplers":[{
		"magFilter":9729,
		"minFilter":9729,
		"wrapS":10497,
		"wrapT":10497
	},
	{
		"magFilter":9729,
		"minFilter":9729,
		"wrapS":10497,
		"wrapT":10497
	},
	{
		"magFilter":9729,
		"minFilter":9729,
		"wrapS":10497,
		"wrapT":10497
	},
	{
		"magFilter":9729,
		"minFilter":9729,
		"wrapS":10497,
		"wrapT":10497
	},
	{
		"magFilter":9729,
		"minFilter":9729,
		"wrapS":10497,
		"wrapT":10497
	}],
	"textures":[{
		"sampler":0,
		"source":0
	},
	{
		"sampler":1,
		"source":1
	},
	{
		"sampler":2,
		"source":2
	},
	{
		"sampler":3,
		"source":3
	},
	{
		"sampler":4,
		"source":4
	}]
}