{
	"materials":[{
		"pbrMetallicRoughness":{
			"baseColorFactor":[1.0,
			1.0,
			1.0,
			1.0],
			"metallicFactor":0.0,
			"roughnessFactor":0.5
		},
		"emissiveTexture":{
			"index":0
		},
		"emissiveFactor":[1.0,
		1.0,
		1.0],
		"alphaMode":"OPAQUE",
		"doubleSided":false,
		"name":"Vivre_le_St-Larent_V3 copy"
	},
	{
		"pbrMetallicRoughness":{
			"baseColorFactor":[1.0,
			1.0,
			1.0,
			1.0],
			"metallicFactor":1.0,
			"roughnessFactor":1.0
		},
		"emissiveTexture":{
			"index":1
		},
		"emissiveFactor":[1.0,
		1.0,
		1.0],
		"alphaMode":"OPAQUE",
		"doubleSided":false,
		"name":"Vivre_le_St-Larent_V3 copy"
	},
	{
		"pbrMetallicRoughness":{
			"baseColorFactor":[1.0,
			1.0,
			1.0,
			1.0],
			"metallicFactor":1.0,
			"roughnessFactor":1.0
		},
		"emissiveTexture":{
			"index":2
		},
		"emissiveFactor":[1.0,
		1.0,
		1.0],
		"alphaMode":"OPAQUE",
		"doubleSided":false,
		"name":"sky"
	},
	{
		"pbrMetallicRoughness":{
			"baseColorTexture":{
				"index":3
			},
			"baseColorFactor":[1.0,
			1.0,
			1.0,
			1.0],
			"metallicFactor":1.0,
			"roughnessFactor":1.0
		},
		"emissiveTexture":{
			"index":4
		},
		"emissiveFactor":[1.0,
		1.0,
		1.0],
		"alphaMode":"BLEND",
		"doubleSided":false,
		"name":"whales_and_boat"
	},
	{
		"pbrMetallicRoughness":{
			"baseColorTexture":{
				"index":5
			},
			"baseColorFactor":[1.0,
			1.0,
			1.0,
			0.9],
			"metallicFactor":1.0,
			"roughnessFactor":1.0
		},
		"emissiveTexture":{
			"index":6
		},
		"emissiveFactor":[1.0,
		1.0,
		1.0],
		"alphaMode":"BLEND",
		"doubleSided":false,
		"name":"Mat.1"
	},
	{
		"pbrMetallicRoughness":{
			"baseColorFactor":[1.0,
			1.0,
			1.0,
			1.0],
			"metallicFactor":1.0,
			"roughnessFactor":1.0
		},
		"emissiveFactor":[1.0,
		1.0,
		1.0],
		"alphaMode":"OPAQUE",
		"doubleSided":false,
		"name":"Mat"
	},
	{
		"pbrMetallicRoughness":{
			"baseColorFactor":[0.8,
			0.8,
			0.8,
			1.0],
			"metallicFactor":0.0,
			"roughnessFactor":0.5
		},
		"emissiveFactor":[0.0,
		0.0,
		0.0],
		"alphaMode":"OPAQUE",
		"doubleSided":false,
		"name":"Mat"
	}],
	"asset":{
		"version":"2.0",
		"generator":"Created using the official Cinema 4D glTF Exporter 1.000x284978"
	},
	"scenes":[{
		"nodes":[0]
	}],
	"samplers":[{
		"magFilter":9729,
		"minFilter":9729,
		"wrapS":10497,
		"wrapT":10497
	},
	{
		"magFilter":9729,
		"minFilter":9729,
		"wrapS":10497,
		"wrapT":10497
	},
	{
		"magFilter":9729,
		"minFilter":9729,
		"wrapS":10497,
		"wrapT":10497
	},
	{
		"magFilter":9729,
		"minFilter":9729,
		"wrapS":10497,
		"wrapT":10497
	},
	{
		"magFilter":9729,
		"minFilter":9729,
		"wrapS":10497,
		"wrapT":10497
	},
	{
		"magFilter":9729,
		"minFilter":9729,
		"wrapS":10497,
		"wrapT":10497
	},
	{
		"magFilter":9729,
		"minFilter":9729,
		"wrapS":10497,
		"wrapT":10497
	}],
	"nodes":[{
		"name":"Scene",
		"scale":[0.0010000000474974514,
		0.0010000000474974514,
		0.0010000000474974514],
		"translation":[0.0,
		0.0,
		0.0],
		"rotation":[0.0,
		0.0,
		0.0,
		-1.0],
		"children":[1,
		4,
		5,
		8,
		9,
		10]
	},
	{
		"name":"sea",
		"scale":[1.0,
		1.0,
		1.0],
		"translation":[178.13973999023438,
		-187.2209930419922,
		-962.8909912109375],
		"rotation":[-0.06975647062063217,
		0.0,
		0.0,
		-0.9975640773773193],
		"children":[2,
		3]
	},
	{
		"name":"sea-Vivre_le_St-Larent_V3 copy",
		"scale":[1.0,
		1.0,
		1.0],
		"translation":[0.0,
		0.0,
		0.0],
		"rotation":[0.0,
		0.0,
		0.0,
		-1.0],
		"mesh":0
	},
	{
		"name":"sea-Vivre_le_St-Larent_V3 copy",
		"scale":[1.0,
		1.0,
		1.0],
		"translation":[2.842170943040401e-14,
		2.842170943040401e-14,
		1.1368683772161604e-13],
		"rotation":[0.0,
		0.0,
		0.0,
		-1.0],
		"mesh":1
	},
	{
		"name":"hdr",
		"scale":[1000.0,
		1000.0,
		1000.0],
		"translation":[0.0,
		-713.6979370117188,
		-975.4232788085938],
		"rotation":[0.0,
		0.0,
		7.450580596923828e-9,
		-1.0],
		"mesh":2
	},
	{
		"name":"whaleGroup",
		"scale":[1000.0,
		1000.0,
		1000.0],
		"translation":[0.0,
		0.0,
		0.0],
		"rotation":[0.0,
		0.0,
		1.053671194739536e-8,
		-1.0],
		"children":[6,
		7]
	},
	{
		"name":"whale",
		"scale":[0.10000000149011612,
		0.10000000149011612,
		0.10000000149011612],
		"translation":[-0.15659938752651215,
		-0.1448938250541687,
		-1.3231412172317505],
		"rotation":[-0.06975647062063217,
		-1.3019922443162549e-25,
		9.104416270478715e-27,
		-0.9975640773773193],
		"mesh":3
	},
	{
		"name":"splash",
		"scale":[0.0010000000474974514,
		0.0010000000474974514,
		0.0010000000474974514],
		"translation":[0.15232135355472566,
		0.004060923587530851,
		-1.2676928043365479],
		"rotation":[-0.7071067690849304,
		0.0,
		0.0,
		-0.7071067690849304],
		"mesh":4
	},
	{
		"name":"boat",
		"scale":[100.0,
		100.0,
		100.0],
		"translation":[169.6283416748047,
		-42.34443283081055,
		-843.4443969726563],
		"rotation":[0.9430024027824402,
		0.0029944574926048519,
		-0.08091489970684052,
		0.3227851986885071],
		"mesh":5
	},
	{
		"name":"Frame",
		"scale":[1.0,
		1.0,
		1.0],
		"translation":[0.0,
		0.0,
		158.4423065185547],
		"rotation":[-0.7071067690849304,
		0.0,
		0.0,
		-0.7071067690849304],
		"mesh":6
	},
	{
		"name":"occlude_object",
		"scale":[1.0,
		1.0,
		1.0],
		"translation":[0.0,
		-44.29216003417969,
		143.99888610839845],
		"rotation":[0.0,
		0.0,
		0.0,
		-1.0],
		"mesh":7
	}],
	"meshes":[{
		"name":"sea-Vivre_le_St-Larent_V3 copy",
		"primitives":[{
			"attributes":{
				"POSITION":1,
				"NORMAL":2,
				"TEXCOORD_0":3
			},
			"indices":0,
			"material":0
		}]
	},
	{
		"name":"sea-Vivre_le_St-Larent_V3 copy",
		"primitives":[{
			"attributes":{
				"POSITION":5,
				"NORMAL":6,
				"TEXCOORD_0":7
			},
			"indices":4,
			"material":1
		}]
	},
	{
		"name":"hdr",
		"primitives":[{
			"attributes":{
				"POSITION":9,
				"NORMAL":10,
				"TEXCOORD_0":11
			},
			"indices":8,
			"material":2
		}]
	},
	{
		"name":"whale",
		"primitives":[{
			"attributes":{
				"POSITION":13,
				"NORMAL":14,
				"TEXCOORD_0":15
			},
			"indices":12,
			"material":3
		}]
	},
	{
		"name":"splash",
		"primitives":[{
			"attributes":{
				"POSITION":17,
				"NORMAL":18,
				"TEXCOORD_0":19
			},
			"indices":16,
			"material":4
		}]
	},
	{
		"name":"boat",
		"primitives":[{
			"attributes":{
				"POSITION":21,
				"NORMAL":22,
				"TEXCOORD_0":23
			},
			"indices":20,
			"material":3
		}]
	},
	{
		"name":"Frame",
		"primitives":[{
			"attributes":{
				"POSITION":25,
				"NORMAL":26,
				"TEXCOORD_0":27
			},
			"indices":24,
			"material":5
		}]
	},
	{
		"name":"occlude_object",
		"primitives":[{
			"attributes":{
				"POSITION":29,
				"NORMAL":30,
				"TEXCOORD_0":31
			},
			"indices":28,
			"material":6
		}]
	}],
	"accessors":[{
		"bufferView":0,
		"type":"SCALAR",
		"componentType":5123,
		"count":960,
		"byteOffset":0,
		"min":[0],
		"max":[188]
	},
	{
		"bufferView":1,
		"type":"VEC3",
		"componentType":5126,
		"count":189,
		"byteOffset":0,
		"min":[-583.526611328125,
		-1.4551915228366853e-11,
		-921.406982421875],
		"max":[583.5266723632813,
		-1.4551915228366853e-11,
		1097.49072265625]
	},
	{
		"bufferView":1,
		"type":"VEC3",
		"componentType":5126,
		"count":189,
		"byteOffset":12,
		"min":[0.0,
		1.0,
		0.0],
		"max":[0.0,
		1.0,
		0.0]
	},
	{
		"bufferView":1,
		"type":"VEC2",
		"componentType":5126,
		"count":189,
		"byteOffset":24,
		"min":[-0.3858184814453125,
		0.5974518656730652],
		"max":[1.674285888671875,
		1.0351430177688599]
	},
	{
		"bufferView":2,
		"type":"SCALAR",
		"componentType":5123,
		"count":648,
		"byteOffset":0,
		"min":[0],
		"max":[151]
	},
	{
		"bufferView":3,
		"type":"VEC3",
		"componentType":5126,
		"count":152,
		"byteOffset":0,
		"min":[-7660.90087890625,
		-1.4551915228366853e-11,
		-2940.3046875],
		"max":[6579.53271484375,
		-1.4551915228366853e-11,
		1097.49072265625]
	},
	{
		"bufferView":3,
		"type":"VEC3",
		"componentType":5126,
		"count":152,
		"byteOffset":12,
		"min":[0.0,
		1.0,
		0.0],
		"max":[0.0,
		1.0,
		0.0]
	},
	{
		"bufferView":3,
		"type":"VEC2",
		"componentType":5126,
		"count":152,
		"byteOffset":24,
		"min":[-17.486328125,
		0.5],
		"max":[10.186767578125,
		1.2113374471664429]
	},
	{
		"bufferView":4,
		"type":"SCALAR",
		"componentType":5123,
		"count":1440,
		"byteOffset":0,
		"min":[0],
		"max":[256]
	},
	{
		"bufferView":5,
		"type":"VEC3",
		"componentType":5126,
		"count":257,
		"byteOffset":0,
		"min":[-4.015084266662598,
		-4.015084266662598,
		-3.0530591011047365],
		"max":[4.015084266662598,
		4.015084266662598,
		0.9620251059532166]
	},
	{
		"bufferView":5,
		"type":"VEC3",
		"componentType":5126,
		"count":257,
		"byteOffset":12,
		"min":[-0.9946539402008057,
		-0.9980147480964661,
		0.019209496676921846],
		"max":[0.9946539402008057,
		0.9980146288871765,
		1.0]
	},
	{
		"bufferView":5,
		"type":"VEC2",
		"componentType":5126,
		"count":257,
		"byteOffset":24,
		"min":[-8.5849609375,
		-23.298622131347658],
		"max":[7.5196533203125,
		20.311141967773439]
	},
	{
		"bufferView":6,
		"type":"SCALAR",
		"componentType":5123,
		"count":53538,
		"byteOffset":0,
		"min":[0],
		"max":[13286]
	},
	{
		"bufferView":7,
		"type":"VEC3",
		"componentType":5126,
		"count":13287,
		"byteOffset":0,
		"min":[-2.530406951904297,
		-0.17296941578388215,
		-0.08939182758331299],
		"max":[1.2803807258605958,
		3.272914171218872,
		0.07931153476238251]
	},
	{
		"bufferView":7,
		"type":"VEC3",
		"componentType":5126,
		"count":13287,
		"byteOffset":12,
		"min":[-0.9999996423721314,
		-0.9999573230743408,
		-1.0],
		"max":[1.0,
		0.9999998211860657,
		1.0]
	},
	{
		"bufferView":7,
		"type":"VEC2",
		"componentType":5126,
		"count":13287,
		"byteOffset":24,
		"min":[0.125,
		0.28770431876182558],
		"max":[0.40026092529296877,
		0.6327884793281555]
	},
	{
		"bufferView":8,
		"type":"SCALAR",
		"componentType":5123,
		"count":96,
		"byteOffset":0,
		"min":[0],
		"max":[24]
	},
	{
		"bufferView":9,
		"type":"VEC3",
		"componentType":5126,
		"count":25,
		"byteOffset":0,
		"min":[-757.0989379882813,
		0.0,
		-250.39471435546876],
		"max":[0.000014102066415944137,
		0.0,
		250.3946990966797]
	},
	{
		"bufferView":9,
		"type":"VEC3",
		"componentType":5126,
		"count":25,
		"byteOffset":12,
		"min":[0.0,
		1.0,
		0.0],
		"max":[0.0,
		1.0,
		0.0]
	},
	{
		"bufferView":9,
		"type":"VEC2",
		"componentType":5126,
		"count":25,
		"byteOffset":24,
		"min":[0.09999999403953552,
		0.30000001192092898],
		"max":[0.5,
		0.6999999284744263]
	},
	{
		"bufferView":10,
		"type":"SCALAR",
		"componentType":5123,
		"count":2556,
		"byteOffset":0,
		"min":[0],
		"max":[790]
	},
	{
		"bufferView":11,
		"type":"VEC3",
		"componentType":5126,
		"count":791,
		"byteOffset":0,
		"min":[-1.5334149599075318,
		-1.3143585920333863,
		-1.9675867557525635],
		"max":[1.1360892057418824,
		2.150186538696289,
		2.2403392791748049]
	},
	{
		"bufferView":11,
		"type":"VEC3",
		"componentType":5126,
		"count":791,
		"byteOffset":12,
		"min":[-0.9987143278121948,
		-0.9933170676231384,
		-0.9836807250976563],
		"max":[0.9987143278121948,
		0.9933170676231384,
		0.9836807250976563]
	},
	{
		"bufferView":11,
		"type":"VEC2",
		"componentType":5126,
		"count":791,
		"byteOffset":24,
		"min":[0.4556427001953125,
		0.2974742650985718],
		"max":[0.6331634521484375,
		0.7000897526741028]
	},
	{
		"bufferView":12,
		"type":"SCALAR",
		"componentType":5123,
		"count":24,
		"byteOffset":0,
		"min":[0],
		"max":[7]
	},
	{
		"bufferView":13,
		"type":"VEC3",
		"componentType":5126,
		"count":8,
		"byteOffset":0,
		"min":[-262.8077392578125,
		-20.149627685546876,
		-327.3437805175781],
		"max":[250.04771423339845,
		-20.149627685546876,
		319.3000183105469]
	},
	{
		"bufferView":13,
		"type":"VEC3",
		"componentType":5126,
		"count":8,
		"byteOffset":12,
		"min":[0.0,
		1.0,
		0.0],
		"max":[0.0,
		1.0,
		0.0]
	},
	{
		"bufferView":13,
		"type":"VEC2",
		"componentType":5126,
		"count":8,
		"byteOffset":24,
		"min":[0.0,
		0.0],
		"max":[1.0,
		1.0]
	},
	{
		"bufferView":14,
		"type":"SCALAR",
		"componentType":5123,
		"count":24,
		"byteOffset":0,
		"min":[0],
		"max":[7]
	},
	{
		"bufferView":15,
		"type":"VEC3",
		"componentType":5126,
		"count":8,
		"byteOffset":0,
		"min":[-44767.8203125,
		-5002.5830078125,
		-7.41502046585083],
		"max":[45818.74609375,
		3784.449951171875,
		-7.41502046585083]
	},
	{
		"bufferView":15,
		"type":"VEC3",
		"componentType":5126,
		"count":8,
		"byteOffset":12,
		"min":[0.0,
		0.0,
		1.0],
		"max":[0.0,
		0.0,
		1.0]
	},
	{
		"bufferView":15,
		"type":"VEC2",
		"componentType":5126,
		"count":8,
		"byteOffset":24,
		"min":[0.0,
		0.0],
		"max":[1.0,
		1.0]
	}],
	"bufferViews":[{
		"buffer":0,
		"byteOffset":0,
		"byteLength":1920,
		"target":34963
	},
	{
		"buffer":0,
		"byteOffset":1920,
		"byteLength":6048,
		"target":34962,
		"byteStride":32
	},
	{
		"buffer":1,
		"byteOffset":0,
		"byteLength":1296,
		"target":34963
	},
	{
		"buffer":1,
		"byteOffset":1296,
		"byteLength":4864,
		"target":34962,
		"byteStride":32
	},
	{
		"buffer":2,
		"byteOffset":0,
		"byteLength":2880,
		"target":34963
	},
	{
		"buffer":2,
		"byteOffset":2880,
		"byteLength":8224,
		"target":34962,
		"byteStride":32
	},
	{
		"buffer":3,
		"byteOffset":0,
		"byteLength":107076,
		"target":34963
	},
	{
		"buffer":3,
		"byteOffset":107076,
		"byteLength":425184,
		"target":34962,
		"byteStride":32
	},
	{
		"buffer":4,
		"byteOffset":0,
		"byteLength":192,
		"target":34963
	},
	{
		"buffer":4,
		"byteOffset":192,
		"byteLength":800,
		"target":34962,
		"byteStride":32
	},
	{
		"buffer":5,
		"byteOffset":0,
		"byteLength":5112,
		"target":34963
	},
	{
		"buffer":5,
		"byteOffset":5112,
		"byteLength":25312,
		"target":34962,
		"byteStride":32
	},
	{
		"buffer":6,
		"byteOffset":0,
		"byteLength":48,
		"target":34963
	},
	{
		"buffer":6,
		"byteOffset":48,
		"byteLength":256,
		"target":34962,
		"byteStride":32
	},
	{
		"buffer":7,
		"byteOffset":0,
		"byteLength":48,
		"target":34963
	},
	{
		"buffer":7,
		"byteOffset":48,
		"byteLength":256,
		"target":34962,
		"byteStride":32
	}],
	"buffers":[{
		"uri":"data:application/octet-stream;base64,",
		"byteLength":7968
	},
	{
		"uri":"data:application/octet-stream;base64,",
		"byteLength":6160
	},
	{
		"uri":"data:application/octet-stream;base64,",
		"byteLength":11104
	},
	{
		"uri":"data:application/octet-stream;base64,",
		"byteLength":532260
	},
	{
		"uri":"data:application/octet-stream;base64,",
		"byteLength":992
	},
	{
		"uri":"data:application/octet-stream;base64,",
		"byteLength":30424
	},
	{
		"uri":"data:application/octet-stream;base64,",
		"byteLength":304
	},
	{
		"uri":"data:application/octet-stream;base64,",
		"byteLength":304
	}],
	"images":[{
		"uri":"data:image/jpeg;base64,"
	},
	{
		"uri":"data:image/jpeg;base64,"
	},
	{
		"uri":"data:image/jpeg;base64,"
	},
	{
		"uri":"data:image/png;base64,"
	},
	{
		"uri":"data:image/jpeg;base64,"
	},
	{
		"uri":"data:image/png;base64,"
	},
	{
		"uri":"data:image/jpeg;base64,"
	}],
	"textures":[{
		"sampler":0,
		"source":0
	},
	{
		"sampler":1,
		"source":1
	},
	{
		"sampler":2,
		"source":2
	},
	{
		"sampler":3,
		"source":3
	},
	{
		"sampler":4,
		"source":4
	},
	{
		"sampler":5,
		"source":5
	},
	{
		"sampler":6,
		"source":6
	}]
}