{
	"nodes":[{
		"name":"Scene",
		"translation":[0.0,
		0.0,
		0.0],
		"children":[1,
		2,
		3,
		4,
		5],
		"rotation":[0.0,
		0.0,
		0.0,
		-1.0],
		"scale":[1.0,
		1.0,
		1.0]
	},
	{
		"name":"Plane",
		"translation":[0.05003364756703377,
		-0.06952398270368576,
		-0.9648633003234863],
		"rotation":[0.0,
		0.0,
		0.0,
		-1.0],
		"scale":[1.0,
		1.0,
		1.0],
		"mesh":0
	},
	{
		"name":"Extrude",
		"translation":[0.05003364756703377,
		-0.00023252169194165617,
		0.22752591967582704],
		"rotation":[0.0,
		0.0,
		0.0,
		-1.0],
		"scale":[1.0,
		1.0,
		1.0],
		"mesh":1
	},
	{
		"name":"Cylinder.10",
		"translation":[0.07535838335752487,
		-0.011519932188093663,
		-0.38133400678634646],
		"rotation":[0.0,
		0.0,
		0.0,
		-1.0],
		"scale":[1.0,
		1.0,
		1.0],
		"mesh":2
	},
	{
		"name":"Frame",
		"translation":[0.0,
		0.032388895750045779,
		-0.06489050388336182],
		"rotation":[-0.7071067690849304,
		0.0,
		0.0,
		-0.7071067690849304],
		"scale":[0.0010000000474974514,
		0.0010000000474974514,
		0.0010000000474974514],
		"mesh":3
	},
	{
		"name":"occlude_object",
		"translation":[0.0,
		0.017438199371099473,
		-0.06989910453557968],
		"rotation":[0.0,
		0.0,
		0.0,
		-1.0],
		"scale":[0.0010000000474974514,
		0.0010000000474974514,
		0.0010000000474974514],
		"mesh":4
	}],
	"asset":{
		"version":"2.0",
		"generator":"Created using the official Cinema 4D glTF Exporter 1.000x284978"
	},
	"scenes":[{
		"nodes":[0]
	}],
	"meshes":[{
		"name":"Plane",
		"primitives":[{
			"attributes":{
				"POSITION":1,
				"NORMAL":2,
				"TEXCOORD_0":3
			},
			"indices":0,
			"material":0
		}]
	},
	{
		"name":"Extrude",
		"primitives":[{
			"attributes":{
				"POSITION":5,
				"NORMAL":6,
				"TEXCOORD_0":7
			},
			"indices":4,
			"material":1
		}]
	},
	{
		"name":"Cylinder.10",
		"primitives":[{
			"attributes":{
				"POSITION":9,
				"NORMAL":10,
				"TEXCOORD_0":11
			},
			"indices":8,
			"material":1
		}]
	},
	{
		"name":"Frame",
		"primitives":[{
			"attributes":{
				"POSITION":13,
				"NORMAL":14,
				"TEXCOORD_0":15
			},
			"indices":12,
			"material":2
		}]
	},
	{
		"name":"occlude_object",
		"primitives":[{
			"attributes":{
				"POSITION":17,
				"NORMAL":18,
				"TEXCOORD_0":19
			},
			"indices":16,
			"material":3
		}]
	}],
	"accessors":[{
		"type":"SCALAR",
		"bufferView":0,
		"componentType":5123,
		"count":1620,
		"byteOffset":0,
		"min":[0],
		"max":[307]
	},
	{
		"type":"VEC3",
		"bufferView":1,
		"componentType":5126,
		"count":308,
		"byteOffset":0,
		"min":[-10.698545455932618,
		8.881783998477906e-18,
		-0.8934637308120728],
		"max":[10.698545455932618,
		8.881783998477906e-18,
		0.8934637308120728]
	},
	{
		"type":"VEC3",
		"bufferView":1,
		"componentType":5126,
		"count":308,
		"byteOffset":12,
		"min":[0.0,
		1.0,
		0.0],
		"max":[0.0,
		1.0,
		0.0]
	},
	{
		"type":"VEC2",
		"bufferView":1,
		"componentType":5126,
		"count":308,
		"byteOffset":24,
		"min":[-8.3935546875,
		0.5],
		"max":[9.38134765625,
		1.0285097360610963]
	},
	{
		"type":"SCALAR",
		"bufferView":2,
		"componentType":5123,
		"count":53538,
		"byteOffset":0,
		"min":[0],
		"max":[13337]
	},
	{
		"type":"VEC3",
		"bufferView":3,
		"componentType":5126,
		"count":13338,
		"byteOffset":0,
		"min":[-0.2826445698738098,
		-0.08266069740056992,
		-0.9803891777992249],
		"max":[-0.09566302597522736,
		0.08641630411148071,
		-0.969462513923645]
	},
	{
		"type":"VEC3",
		"bufferView":3,
		"componentType":5126,
		"count":13338,
		"byteOffset":12,
		"min":[-0.9999997019767761,
		-0.9999573230743408,
		-1.0],
		"max":[1.0,
		0.9999998807907105,
		1.0]
	},
	{
		"type":"VEC2",
		"bufferView":3,
		"componentType":5126,
		"count":13338,
		"byteOffset":24,
		"min":[0.125,
		0.28770431876182558],
		"max":[0.40026092529296877,
		0.6327884793281555]
	},
	{
		"type":"SCALAR",
		"bufferView":4,
		"componentType":5123,
		"count":2562,
		"byteOffset":0,
		"min":[0],
		"max":[790]
	},
	{
		"type":"VEC3",
		"bufferView":5,
		"componentType":5126,
		"count":791,
		"byteOffset":0,
		"min":[-0.050735700875520709,
		-0.06380756199359894,
		-0.061734359711408618],
		"max":[0.050735700875520709,
		0.09353309869766236,
		0.05837472528219223]
	},
	{
		"type":"VEC3",
		"bufferView":5,
		"componentType":5126,
		"count":791,
		"byteOffset":12,
		"min":[-0.9996320009231567,
		-0.9999341368675232,
		-1.0],
		"max":[0.9996320009231567,
		0.9998778700828552,
		1.0]
	},
	{
		"type":"VEC2",
		"bufferView":5,
		"componentType":5126,
		"count":791,
		"byteOffset":24,
		"min":[0.4556427001953125,
		0.2974742650985718],
		"max":[0.6331634521484375,
		0.7000897526741028]
	},
	{
		"type":"SCALAR",
		"bufferView":6,
		"componentType":5123,
		"count":24,
		"byteOffset":0,
		"min":[0],
		"max":[7]
	},
	{
		"type":"VEC3",
		"bufferView":7,
		"componentType":5126,
		"count":8,
		"byteOffset":0,
		"min":[-88.16458892822266,
		-6.759632110595703,
		-109.81461334228516],
		"max":[83.88395690917969,
		-6.759632110595703,
		107.11615753173828]
	},
	{
		"type":"VEC3",
		"bufferView":7,
		"componentType":5126,
		"count":8,
		"byteOffset":12,
		"min":[0.0,
		1.0,
		0.0],
		"max":[0.0,
		1.0,
		0.0]
	},
	{
		"type":"VEC2",
		"bufferView":7,
		"componentType":5126,
		"count":8,
		"byteOffset":24,
		"min":[0.0,
		0.0],
		"max":[1.0,
		1.0]
	},
	{
		"type":"SCALAR",
		"bufferView":8,
		"componentType":5123,
		"count":24,
		"byteOffset":0,
		"min":[0],
		"max":[7]
	},
	{
		"type":"VEC3",
		"bufferView":9,
		"componentType":5126,
		"count":8,
		"byteOffset":0,
		"min":[-759.6799926757813,
		-435.0955505371094,
		-2.4902379512786867],
		"max":[664.6697998046875,
		472.6515197753906,
		-2.4902379512786867]
	},
	{
		"type":"VEC3",
		"bufferView":9,
		"componentType":5126,
		"count":8,
		"byteOffset":12,
		"min":[0.0,
		0.0,
		1.0],
		"max":[0.0,
		0.0,
		1.0]
	},
	{
		"type":"VEC2",
		"bufferView":9,
		"componentType":5126,
		"count":8,
		"byteOffset":24,
		"min":[0.0,
		0.0],
		"max":[1.0,
		1.0]
	}],
	"bufferViews":[{
		"target":34963,
		"buffer":0,
		"byteOffset":0,
		"byteLength":3240
	},
	{
		"target":34962,
		"buffer":0,
		"byteOffset":3240,
		"byteLength":9856,
		"byteStride":32
	},
	{
		"target":34963,
		"buffer":1,
		"byteOffset":0,
		"byteLength":107076
	},
	{
		"target":34962,
		"buffer":1,
		"byteOffset":107076,
		"byteLength":426816,
		"byteStride":32
	},
	{
		"target":34963,
		"buffer":2,
		"byteOffset":0,
		"byteLength":5124
	},
	{
		"target":34962,
		"buffer":2,
		"byteOffset":5124,
		"byteLength":25312,
		"byteStride":32
	},
	{
		"target":34963,
		"buffer":3,
		"byteOffset":0,
		"byteLength":48
	},
	{
		"target":34962,
		"buffer":3,
		"byteOffset":48,
		"byteLength":256,
		"byteStride":32
	},
	{
		"target":34963,
		"buffer":4,
		"byteOffset":0,
		"byteLength":48
	},
	{
		"target":34962,
		"buffer":4,
		"byteOffset":48,
		"byteLength":256,
		"byteStride":32
	}],
	"buffers":[{
		"uri":"data:application/octet-stream;base64,",
		"byteLength":13096
	},
	{
		"uri":"data:application/octet-stream;base64,",
		"byteLength":533892
	},
	{
		"uri":"data:application/octet-stream;base64,",
		"byteLength":30436
	},
	{
		"uri":"data:application/octet-stream;base64,",
		"byteLength":304
	},
	{
		"uri":"data:application/octet-stream;base64,",
		"byteLength":304
	}],
	"images":[{
		"uri":"data:image/jpeg;base64,"
	},
	{
		"uri":"data:image/png;base64,"
	},
	{
		"uri":"data:image/jpeg;base64,"
	}],
	"samplers":[{
		"magFilter":9729,
		"minFilter":9729,
		"wrapS":10497,
		"wrapT":10497
	},
	{
		"magFilter":9729,
		"minFilter":9729,
		"wrapS":10497,
		"wrapT":10497
	},
	{
		"magFilter":9729,
		"minFilter":9729,
		"wrapS":10497,
		"wrapT":10497
	}],
	"textures":[{
		"sampler":0,
		"source":0
	},
	{
		"sampler":1,
		"source":1
	},
	{
		"sampler":2,
		"source":2
	}],
	"materials":[{
		"pbrMetallicRoughness":{
			"baseColorFactor":[1.0,
			1.0,
			1.0,
			1.0],
			"metallicFactor":1.0,
			"roughnessFactor":1.0
		},
		"emissiveTexture":{
			"index":0
		},
		"emissiveFactor":[1.0,
		1.0,
		1.0],
		"alphaMode":"OPAQUE",
		"name":"Vivre_le_St-Larent_V3 copy",
		"doubleSided":false
	},
	{
		"pbrMetallicRoughness":{
			"baseColorTexture":{
				"index":1
			},
			"baseColorFactor":[1.0,
			1.0,
			1.0,
			1.0],
			"metallicFactor":1.0,
			"roughnessFactor":1.0
		},
		"emissiveTexture":{
			"index":2
		},
		"emissiveFactor":[1.0,
		1.0,
		1.0],
		"alphaMode":"BLEND",
		"name":"whales_and_boat",
		"doubleSided":false
	},
	{
		"pbrMetallicRoughness":{
			"baseColorFactor":[1.0,
			1.0,
			1.0,
			1.0],
			"metallicFactor":1.0,
			"roughnessFactor":1.0
		},
		"emissiveFactor":[1.0,
		1.0,
		1.0],
		"alphaMode":"OPAQUE",
		"name":"Mat",
		"doubleSided":false
	},
	{
		"pbrMetallicRoughness":{
			"baseColorFactor":[0.8,
			0.8,
			0.8,
			1.0],
			"metallicFactor":0.0,
			"roughnessFactor":0.5
		},
		"emissiveFactor":[0.0,
		0.0,
		0.0],
		"alphaMode":"OPAQUE",
		"name":"Mat",
		"doubleSided":false
	}]
}